<svg width="350" height="90" viewBox="0 0 350 90" fill="none" xmlns="http://www.w3.org/2000/svg">
<path d="M284.696 46.6304C284.696 51.9185 283.187 55.9688 280.169 58.7812C277.167 61.5938 272.823 63 267.14 63H258.043V30.876H268.128C273.373 30.876 277.445 32.2603 280.345 35.0288C283.246 37.7974 284.696 41.6646 284.696 46.6304ZM277.621 46.8062C277.621 39.9067 274.574 36.457 268.48 36.457H264.854V57.375H267.777C274.339 57.375 277.621 53.8521 277.621 46.8062ZM320.511 46.894C320.511 52.2114 319.193 56.2983 316.556 59.1548C313.919 62.0112 310.14 63.4395 305.218 63.4395C300.296 63.4395 296.517 62.0112 293.88 59.1548C291.244 56.2983 289.925 52.1968 289.925 46.8501C289.925 41.5034 291.244 37.4238 293.88 34.6113C296.532 31.7842 300.326 30.3706 305.262 30.3706C310.199 30.3706 313.971 31.7915 316.578 34.6333C319.2 37.4751 320.511 41.562 320.511 46.894ZM297.066 46.894C297.066 50.4829 297.748 53.1855 299.11 55.002C300.472 56.8184 302.508 57.7266 305.218 57.7266C310.653 57.7266 313.37 54.1157 313.37 46.894C313.37 39.6577 310.667 36.0396 305.262 36.0396C302.552 36.0396 300.509 36.9551 299.132 38.7861C297.755 40.6025 297.066 43.3052 297.066 46.894ZM339.562 63H332.75V36.5449H324.027V30.876H348.285V36.5449H339.562V63Z" fill="#16005C"/>
<path d="M127.545 47.1689H138.465V62.7915C136.766 63.3335 135.038 63.7437 133.28 64.022C131.522 64.3003 129.486 64.4395 127.171 64.4395C122.308 64.4395 118.521 62.9966 115.812 60.1108C113.102 57.2104 111.747 53.1528 111.747 47.938C111.747 44.5981 112.413 41.6758 113.746 39.1709C115.094 36.6514 117.027 34.7324 119.547 33.4141C122.066 32.0811 125.018 31.4146 128.402 31.4146C131.83 31.4146 135.023 32.0444 137.982 33.3042L136.532 36.6001C133.631 35.3696 130.841 34.7544 128.16 34.7544C124.249 34.7544 121.195 35.9189 118.998 38.248C116.8 40.5771 115.702 43.8071 115.702 47.938C115.702 52.2739 116.756 55.5625 118.866 57.8037C120.99 60.0449 124.103 61.1655 128.204 61.1655C130.431 61.1655 132.606 60.9092 134.73 60.3965V50.5088H127.545V47.1689ZM149.935 50.6406V64H146.2V31.876H155.011C158.951 31.876 161.859 32.6304 163.734 34.1392C165.624 35.6479 166.568 37.9185 166.568 40.9507C166.568 45.1987 164.415 48.0698 160.108 49.564L168.832 64H164.415L156.637 50.6406H149.935ZM149.935 47.4326H155.055C157.691 47.4326 159.625 46.9126 160.855 45.8726C162.086 44.8179 162.701 43.2432 162.701 41.1484C162.701 39.0244 162.071 37.4937 160.812 36.5562C159.566 35.6187 157.56 35.1499 154.791 35.1499H149.935V47.4326ZM191.925 64H174.017V31.876H191.925V35.1938H177.752V45.543H191.068V48.8389H177.752V60.6602H191.925V64ZM216.974 64H199.066V31.876H216.974V35.1938H202.801V45.543H216.117V48.8389H202.801V60.6602H216.974V64ZM249.208 64H244.945L227.389 37.0396H227.213C227.447 40.2036 227.564 43.104 227.564 45.7407V64H224.115V31.876H228.333L245.846 58.7266H246.021C245.992 58.3311 245.926 57.064 245.824 54.9253C245.721 52.772 245.685 51.2339 245.714 50.311V31.876H249.208V64Z" fill="#3DBE71"/>
<circle cx="45" cy="45" r="42.5" fill="white" stroke="#3DBE71" stroke-width="5"/>
<circle cx="45" cy="45" r="28.125" fill="#3DBE71"/>
<ellipse cx="45" cy="43.875" rx="12.375" ry="12.375" fill="white"/>
<rect x="16.875" y="42.75" width="56.25" height="5.625" fill="white"/>
</svg>
