<svg width="512" height="512" viewBox="0 0 512 512" fill="none" xmlns="http://www.w3.org/2000/svg">
<path d="M256 512C397.385 512 512 397.385 512 256C512 114.615 397.385 0 256 0C114.615 0 0 114.615 0 256C0 397.385 114.615 512 256 512Z" fill="#F0C52D"/>
<path d="M88.217 156.484V355.306L185.175 255.493L88.217 156.484Z" fill="white"/>
<path d="M423.783 156.484V355.306L327.307 255.895L423.783 156.484Z" fill="white"/>
<path d="M95.558 147.466H415.813L289.948 278.524C280.99 287.851 268.617 293.123 255.686 293.123C242.755 293.123 230.382 287.851 221.424 278.524L95.558 147.466Z" fill="white"/>
<path d="M297.209 285.496C286.41 296.74 271.276 303.19 255.686 303.19C240.097 303.19 224.962 296.742 214.164 285.497L192.815 263.267L95.558 364.534H415.813L318.557 263.267L297.209 285.496Z" fill="white"/>
</svg>
