<svg width="502" height="694" viewBox="0 0 502 694" fill="none" xmlns="http://www.w3.org/2000/svg">
<path d="M454.757 544.069L240.626 543.957C228.257 543.949 216.398 539.709 207.654 532.169C198.911 524.629 194 514.405 194 503.745L194.114 41.0855C194.114 35.8054 195.321 30.5771 197.666 25.6992C200.011 20.8213 203.448 16.3893 207.781 12.6564C212.114 8.92355 217.257 5.96289 222.918 3.9436C228.579 1.9243 234.646 0.885916 240.772 0.887759L454.919 0.999996C467.287 1.00744 479.145 5.24776 487.885 12.7885C496.626 20.3293 501.533 30.5531 501.529 41.2117L501.431 503.871C501.429 509.152 500.22 514.38 497.874 519.258C495.527 524.136 492.088 528.568 487.754 532.301C483.42 536.034 478.275 538.994 472.613 541.013C466.952 543.032 460.884 544.071 454.757 544.069V544.069Z" fill="#263238"/>
<path d="M454.692 17.3597H413.178C410.443 17.4112 407.844 18.3963 405.951 20.0984C404.058 21.8005 403.027 24.0805 403.084 26.4375V32.9196C403.114 34.086 402.878 35.2461 402.387 36.3337C401.897 37.4212 401.163 38.4149 400.228 39.2579C399.292 40.1009 398.172 40.7767 396.933 41.2468C395.694 41.7169 394.36 41.9719 393.007 41.9974L312.079 42.0115C309.347 41.9563 306.752 40.9696 304.863 39.2679C302.974 37.5662 301.945 35.2883 302.001 32.9337V26.3673C302.063 24.0104 301.036 21.7288 299.146 20.0241C297.256 18.3193 294.659 17.3307 291.924 17.2755H277.272H240.935C236.643 17.2737 232.393 18.0007 228.426 19.415C224.46 20.8293 220.856 22.9032 217.821 25.5183C214.785 28.1333 212.377 31.2382 210.734 34.6556C209.091 38.0729 208.245 41.7358 208.245 45.435L208.147 497.024C208.145 500.72 208.988 504.381 210.627 507.796C212.266 511.212 214.67 514.315 217.701 516.93C220.732 519.545 224.331 521.62 228.292 523.036C232.254 524.452 236.5 525.182 240.789 525.184L454.496 525.296C463.161 525.296 471.471 522.332 477.6 517.054C483.73 511.777 487.178 504.618 487.186 497.151L487.284 45.5472C487.297 38.085 483.871 30.9238 477.759 25.638C471.647 20.3522 463.35 17.3746 454.692 17.3597Z" fill="white"/>
<path d="M461.008 62.9592C461.008 63.0855 455.603 63.2258 448.945 63.2679C442.286 63.31 436.881 63.2679 436.881 63.1276C436.881 62.9873 442.286 62.875 448.945 62.8329C455.603 62.7908 461.008 62.847 461.008 62.9592Z" fill="#263238"/>
<path d="M461.057 68.2768C461.057 68.4031 455.652 68.5434 448.994 68.5855C442.335 68.6275 436.93 68.5855 436.93 68.4592C436.93 68.3329 442.335 68.1926 448.994 68.1505C455.652 68.1084 461.057 68.1645 461.057 68.2768Z" fill="#263238"/>
<path d="M461.106 73.5944C461.106 73.7207 455.701 73.861 449.043 73.9031C442.384 73.9452 436.979 73.9031 436.979 73.7768C436.979 73.6505 442.384 73.5102 449.043 73.4681C455.701 73.426 461.106 73.4822 461.106 73.5944Z" fill="#263238"/>
<path d="M241.635 79.6696H242.124H243.524L248.668 79.5714L248.538 79.6837C248.538 78.7015 248.538 77.6352 248.538 76.4706C248.538 75.8673 248.538 75.3061 248.538 74.6186C248.613 74.2538 248.823 73.9197 249.138 73.6667C249.452 73.4137 249.853 73.2554 250.28 73.2155C251.11 73.2155 251.827 73.2155 252.738 73.2155C253.201 73.2886 253.618 73.5007 253.916 73.8141C254.215 74.1276 254.374 74.522 254.366 74.9273C254.366 76.4286 254.366 78 254.366 79.6135L254.138 79.4171H260.65L260.39 79.6275C260.39 77.3826 260.39 75.0395 260.39 72.6122C260.39 72.0229 260.39 71.4337 260.39 70.8444C260.372 70.566 260.281 70.2948 260.123 70.0516C259.965 69.8084 259.744 69.5996 259.478 69.4413L256.629 67.028L253.894 64.699L252.575 63.5765C252.103 63.1977 251.745 62.8048 251.224 62.7066C250.969 62.649 250.701 62.6418 250.442 62.6855C250.183 62.7293 249.938 62.8228 249.726 62.9592C249.336 63.2398 248.912 63.6467 248.522 63.9834L246.194 66.0038C244.728 67.3227 243.198 68.5153 242.091 69.6518C241.763 70.3098 241.65 71.0329 241.766 71.7423C241.766 72.4298 241.766 73.1454 241.766 73.7066C241.766 74.9273 241.766 75.9796 241.766 76.8916C241.766 77.8035 241.766 78.3788 241.766 78.926C241.766 79.4732 241.766 79.6416 241.766 79.6556C241.743 79.4315 241.743 79.2062 241.766 78.9821C241.766 78.4349 241.766 77.7755 241.766 76.9757C241.766 76.176 241.766 74.9974 241.766 73.7768C241.766 73.1454 241.766 72.4719 241.766 71.7704C241.766 71.4056 241.766 71.0408 241.766 70.662C241.764 70.2534 241.888 69.8518 242.124 69.4974C243.328 68.2206 244.761 67.0982 246.226 65.7513L248.554 63.7028C248.961 63.352 249.303 63.0013 249.808 62.6365C250.073 62.4666 250.378 62.3495 250.702 62.2937C251.026 62.2379 251.36 62.2448 251.68 62.3138C252.319 62.4949 252.885 62.831 253.308 63.2819L254.643 64.4043L257.394 66.7194L260.243 69.1326C260.506 69.3371 260.746 69.5626 260.96 69.8061C261.17 70.0923 261.288 70.4216 261.302 70.7602C261.302 71.3495 261.302 71.9388 261.302 72.5421C261.302 74.9273 261.302 77.2563 261.302 79.5574V79.7819H261.057H254.545H254.301V79.5854C254.301 77.9579 254.301 76.3864 254.301 74.8852C254.309 74.5569 254.183 74.2368 253.945 73.9804C253.707 73.724 253.372 73.5477 252.999 73.4821C252.25 73.4821 251.371 73.4821 250.638 73.4821C250.304 73.5154 249.99 73.6371 249.739 73.8306C249.488 74.0241 249.313 74.2798 249.238 74.5625C249.238 75.1377 249.238 75.7831 249.238 76.3584V79.6977H249.108H243.866H242.075C241.928 79.7033 241.78 79.6938 241.635 79.6696V79.6696Z" fill="#263238"/>
<path d="M442.27 107.773H249.401C239.753 107.773 231.932 114.513 231.932 122.828V128.426C231.932 136.741 239.753 143.481 249.401 143.481H442.27C451.917 143.481 459.738 136.741 459.738 128.426V122.828C459.738 114.513 451.917 107.773 442.27 107.773Z" fill="#F5F5F5"/>
<path d="M442.319 143.495L443.621 143.397C444.897 143.298 446.157 143.086 447.382 142.765C449.36 142.221 451.212 141.38 452.852 140.282C455.097 138.808 456.886 136.881 458.062 134.67C458.765 133.335 459.227 131.916 459.429 130.46C459.592 128.86 459.647 127.253 459.592 125.648C459.66 123.9 459.567 122.15 459.315 120.415C458.957 118.561 458.188 116.785 457.052 115.181C455.801 113.404 454.132 111.874 452.152 110.687C450.173 109.5 447.927 108.685 445.559 108.292C442.928 108.022 440.277 107.938 437.63 108.04H429.213L249.466 108.138C245.19 108.149 241.075 109.539 237.929 112.034C234.783 114.53 232.836 117.95 232.47 121.621C232.339 123.389 232.47 125.269 232.47 127.093C232.364 128.879 232.584 130.669 233.121 132.397C234.232 135.811 236.735 138.765 240.17 140.717C241.849 141.681 243.72 142.371 245.689 142.751C247.661 143.083 249.673 143.21 251.68 143.13H287.105H367.919L422.408 143.256H437.207H441.065H442.384H441.065H437.207L422.408 143.327L367.919 143.439L287.105 143.523H251.566C249.498 143.603 247.426 143.466 245.396 143.116C243.329 142.723 241.365 142.005 239.6 140.997C235.998 138.947 233.369 135.85 232.193 132.27C231.635 130.479 231.404 128.623 231.509 126.77C231.509 124.932 231.509 123.136 231.59 121.228C231.966 117.375 234.006 113.783 237.307 111.164C240.608 108.545 244.93 107.089 249.417 107.085L429.165 107.198H437.581C440.262 107.097 442.947 107.196 445.607 107.492C449.158 108.089 452.412 109.609 454.933 111.846C457.453 114.083 459.118 116.931 459.706 120.008C459.949 121.763 460.025 123.532 459.934 125.297C459.994 126.917 459.928 128.539 459.738 130.152C459.512 131.609 459.029 133.029 458.306 134.361C457.111 136.625 455.275 138.593 452.966 140.085C451.287 141.18 449.396 142.012 447.382 142.541C446.141 142.853 444.863 143.041 443.572 143.102L442.319 143.495Z" fill="#263238"/>
<path d="M445.787 124.792C445.705 124.792 445.705 124.217 445.38 123.249C444.928 121.888 443.959 120.697 442.628 119.867C441.569 119.181 440.309 118.762 438.99 118.658C437.67 118.554 436.343 118.769 435.157 119.279C433.971 119.789 432.974 120.574 432.277 121.545C431.58 122.517 431.211 123.636 431.211 124.778C431.211 125.92 431.58 127.04 432.277 128.011C432.974 128.982 433.971 129.767 435.157 130.277C436.343 130.787 437.67 131.002 438.99 130.898C440.309 130.794 441.569 130.375 442.628 129.689C443.96 128.854 444.929 127.659 445.38 126.293C445.705 125.325 445.705 124.75 445.787 124.75C445.818 124.889 445.818 125.032 445.787 125.171C445.805 125.572 445.761 125.973 445.656 126.363C445.301 127.846 444.343 129.169 442.954 130.096C441.92 130.796 440.697 131.26 439.399 131.444C438.101 131.628 436.77 131.526 435.53 131.148C434.003 130.675 432.683 129.808 431.749 128.664C430.816 127.52 430.315 126.155 430.315 124.757C430.315 123.359 430.816 121.994 431.749 120.85C432.683 119.706 434.003 118.839 435.53 118.366C436.769 117.986 438.099 117.881 439.397 118.063C440.695 118.244 441.918 118.706 442.954 119.404C444.331 120.34 445.287 121.659 445.656 123.136C445.761 123.532 445.805 123.938 445.787 124.343C445.825 124.491 445.825 124.644 445.787 124.792V124.792Z" fill="#263238"/>
<path d="M449.905 135.932C448.507 135.156 447.269 134.184 446.242 133.056C445.014 132.076 443.98 130.929 443.182 129.661C444.584 130.443 445.827 131.42 446.861 132.551C448.087 133.524 449.116 134.667 449.905 135.932Z" fill="#263238"/>
<path d="M262.685 122.056H258.632V121.158H267.976V122.056H263.906V131.12H262.685V122.056Z" fill="#E0E0E0"/>
<path d="M276.263 127.682H269.002C269.061 128.417 269.452 129.102 270.091 129.59C270.731 130.079 271.568 130.331 272.421 130.292C272.92 130.307 273.416 130.227 273.875 130.057C274.334 129.887 274.743 129.632 275.074 129.31L275.742 129.969C275.118 130.534 274.315 130.926 273.433 131.099C272.551 131.271 271.63 131.215 270.785 130.938C269.94 130.661 269.209 130.174 268.683 129.54C268.157 128.906 267.86 128.153 267.83 127.374C267.798 126.879 267.886 126.384 268.086 125.92C268.286 125.456 268.595 125.032 268.994 124.675C269.393 124.319 269.872 124.037 270.403 123.847C270.934 123.657 271.504 123.563 272.079 123.571C272.651 123.563 273.22 123.656 273.748 123.847C274.277 124.037 274.753 124.32 275.148 124.677C275.543 125.035 275.848 125.459 276.042 125.923C276.237 126.387 276.318 126.881 276.279 127.374C276.344 127.458 276.263 127.598 276.263 127.682ZM269.002 126.925H275.156C275.156 126.221 274.832 125.547 274.255 125.05C273.678 124.552 272.895 124.273 272.079 124.273C271.263 124.273 270.48 124.552 269.903 125.05C269.326 125.547 269.002 126.221 269.002 126.925Z" fill="#E0E0E0"/>
<path d="M284.028 131.12L281.277 127.991L278.493 131.12H277.175L280.61 127.276L277.354 123.628H278.672L281.293 126.56L283.898 123.628H285.184L281.928 127.276L285.396 131.12H284.028Z" fill="#E0E0E0"/>
<path d="M291.892 130.657C291.375 131.022 290.72 131.212 290.052 131.19C289.711 131.223 289.365 131.19 289.04 131.093C288.716 130.995 288.421 130.836 288.177 130.628C287.933 130.419 287.747 130.166 287.632 129.887C287.517 129.608 287.476 129.31 287.512 129.015V124.483H286.031V123.628H287.577V121.986H288.75V123.628H291.403V124.483H288.75V129.001C288.714 129.184 288.727 129.371 288.789 129.549C288.85 129.726 288.958 129.889 289.105 130.025C289.251 130.161 289.432 130.265 289.633 130.331C289.834 130.397 290.05 130.422 290.264 130.404C290.731 130.412 291.186 130.278 291.55 130.025L291.892 130.657Z" fill="#E0E0E0"/>
<path d="M291.403 172.875H241.538V215.851H291.403V172.875Z" fill="#3DBE71"/>
<path d="M387.325 177.505C387.325 177.702 370.654 177.87 350.093 177.87C329.531 177.87 312.844 177.702 312.844 177.505C312.844 177.309 329.515 177.14 350.093 177.14C370.671 177.14 387.325 177.295 387.325 177.505Z" fill="#3DBE71"/>
<path d="M446.715 190.736C446.715 190.946 416.743 191.101 379.787 191.101C342.832 191.101 312.844 190.946 312.844 190.736C312.844 190.526 342.815 190.371 379.787 190.371C416.759 190.371 446.715 190.469 446.715 190.736Z" fill="#263238"/>
<path d="M445.135 200.08C445.135 200.277 415.522 200.445 378.99 200.445C342.457 200.445 312.844 200.277 312.844 200.08C312.844 199.884 342.457 199.716 378.99 199.716C415.522 199.716 445.135 199.884 445.135 200.08Z" fill="#263238"/>
<path d="M390.956 209.06C390.956 209.256 373.471 209.425 351.883 209.425C330.296 209.425 312.811 209.256 312.811 209.06C312.811 208.864 330.296 208.695 351.883 208.695C373.471 208.695 390.956 208.85 390.956 209.06Z" fill="#263238"/>
<path d="M291.403 244.473H241.538V287.449H291.403V244.473Z" fill="#3DBE71"/>
<path d="M387.325 249.089C387.325 249.3 370.654 249.454 350.093 249.454C329.531 249.454 312.844 249.3 312.844 249.089C312.844 248.879 329.515 248.724 350.093 248.724C370.671 248.724 387.325 248.893 387.325 249.089Z" fill="#3DBE71"/>
<path d="M446.715 262.292C446.715 262.503 416.743 262.657 379.787 262.657C342.832 262.657 312.844 262.503 312.844 262.292C312.844 262.082 342.815 261.927 379.787 261.927C416.759 261.927 446.715 262.068 446.715 262.292Z" fill="#263238"/>
<path d="M445.135 271.679C445.135 271.875 415.522 272.043 378.99 272.043C342.457 272.043 312.844 271.875 312.844 271.679C312.844 271.482 342.457 271.314 378.99 271.314C415.522 271.314 445.135 271.468 445.135 271.679Z" fill="#263238"/>
<path d="M390.956 280.644C390.956 280.855 373.471 281.009 351.883 281.009C330.296 281.009 312.811 280.855 312.811 280.644C312.811 280.434 330.296 280.279 351.883 280.279C373.471 280.279 390.956 280.448 390.956 280.644Z" fill="#263238"/>
<path d="M291.403 316.071H241.538V359.047H291.403V316.071Z" fill="#3DBE71"/>
<path d="M387.325 320.688C387.325 320.898 370.654 321.052 350.093 321.052C329.531 321.052 312.844 320.898 312.844 320.688C312.844 320.477 329.515 320.323 350.093 320.323C370.671 320.323 387.325 320.491 387.325 320.688Z" fill="#3DBE71"/>
<path d="M446.715 333.848C446.715 334.045 416.743 334.213 379.787 334.213C342.832 334.213 312.844 334.045 312.844 333.848C312.844 333.652 342.815 333.483 379.787 333.483C416.759 333.483 446.715 333.666 446.715 333.848Z" fill="#263238"/>
<path d="M445.135 343.277C445.135 343.473 415.522 343.642 378.99 343.642C342.457 343.642 312.844 343.473 312.844 343.277C312.844 343.08 342.457 342.898 378.99 342.898C415.522 342.898 445.135 343.066 445.135 343.277Z" fill="#263238"/>
<path d="M390.956 352.242C390.956 352.453 373.471 352.607 351.883 352.607C330.296 352.607 312.811 352.453 312.811 352.242C312.811 352.032 330.296 351.878 351.883 351.878C373.471 351.878 390.956 352.088 390.956 352.242Z" fill="#263238"/>
<path d="M291.403 387.656H241.538V430.631H291.403V387.656Z" fill="#3DBE71"/>
<path d="M387.325 392.286C387.325 392.482 370.654 392.651 350.093 392.651C329.531 392.651 312.844 392.482 312.844 392.286C312.844 392.089 329.515 391.921 350.093 391.921C370.671 391.921 387.325 392.089 387.325 392.286Z" fill="#455A64"/>
<path d="M446.715 405.404C446.715 405.601 416.743 405.769 379.787 405.769C342.832 405.769 312.844 405.601 312.844 405.404C312.844 405.208 342.815 405.04 379.787 405.04C416.759 405.04 446.715 405.25 446.715 405.404Z" fill="#263238"/>
<path d="M445.135 414.861C445.135 415.071 415.522 415.226 378.99 415.226C342.457 415.226 312.844 415.071 312.844 414.861C312.844 414.651 342.457 414.496 378.99 414.496C415.522 414.496 445.135 414.665 445.135 414.861Z" fill="#263238"/>
<path d="M390.956 423.841C390.956 424.037 373.471 424.205 351.883 424.205C330.296 424.205 312.811 424.037 312.811 423.841C312.811 423.644 330.296 423.476 351.883 423.476C373.471 423.476 390.956 423.644 390.956 423.841Z" fill="#263238"/>
<path d="M291.403 459.254H241.538V502.23H291.403V459.254Z" fill="#E0E0E0"/>
<path d="M387.325 463.884C387.325 464.08 370.654 464.249 350.093 464.249C329.531 464.249 312.844 464.08 312.844 463.884C312.844 463.688 329.515 463.519 350.093 463.519C370.671 463.519 387.325 463.673 387.325 463.884Z" fill="#E0E0E0"/>
<path d="M446.715 477.059C446.715 477.255 416.743 477.423 379.787 477.423C342.832 477.423 312.844 477.255 312.844 477.059C312.844 476.862 342.815 476.694 379.787 476.694C416.759 476.694 446.715 476.848 446.715 477.059Z" fill="#EBEBEB"/>
<path d="M445.135 486.459C445.135 486.656 415.522 486.824 378.99 486.824C342.457 486.824 312.844 486.656 312.844 486.459C312.844 486.263 342.457 486.094 378.99 486.094C415.522 486.094 445.135 486.263 445.135 486.459Z" fill="#EBEBEB"/>
<path d="M390.956 495.439C390.956 495.635 373.471 495.804 351.883 495.804C330.296 495.804 312.811 495.635 312.811 495.439C312.811 495.242 330.296 495.074 351.883 495.074C373.471 495.074 390.956 495.2 390.956 495.439Z" fill="#EBEBEB"/>
<g opacity="0.3">
<path opacity="0.3" d="M291.403 387.656H241.538V430.631H291.403V387.656Z" fill="black"/>
</g>
<g opacity="0.3">
<path opacity="0.3" d="M291.403 244.473H241.538V287.449H291.403V244.473Z" fill="black"/>
</g>
<g clip-path="url(#clip0)">
<path d="M261.025 692.793L46.8939 692.681C34.525 692.674 22.6655 688.434 13.9224 680.894C5.17934 673.353 0.268002 663.13 0.268005 652.469L0.381953 189.81C0.381952 184.53 1.58893 179.302 3.93394 174.424C6.27894 169.546 9.71604 165.114 14.0489 161.381C18.3818 157.648 23.5255 154.687 29.1862 152.668C34.8471 150.649 40.914 149.61 47.0404 149.612L261.188 149.725C273.556 149.732 285.412 153.972 294.153 161.513C302.894 169.054 307.802 179.278 307.797 189.936L307.7 652.596C307.698 657.877 306.488 663.105 304.142 667.983C301.795 672.861 298.356 677.292 294.023 681.026C289.687 684.758 284.543 687.718 278.881 689.737C273.22 691.756 267.153 692.795 261.025 692.793Z" fill="#263238"/>
<path d="M260.96 166.084H219.446C216.711 166.136 214.112 167.121 212.219 168.823C210.327 170.525 209.295 172.805 209.352 175.162V181.644C209.383 182.811 209.145 183.971 208.655 185.058C208.165 186.146 207.431 187.139 206.495 187.982C205.56 188.825 204.44 189.501 203.201 189.971C201.963 190.441 200.628 190.696 199.275 190.722L118.347 190.736C115.615 190.681 113.02 189.694 111.131 187.992C109.242 186.291 108.213 184.013 108.27 181.658V175.092C108.331 172.735 107.304 170.453 105.414 168.749C103.525 167.044 100.927 166.055 98.1922 166H83.5402H47.2033C42.911 165.998 38.6605 166.725 34.6945 168.14C30.7284 169.554 27.1245 171.628 24.0887 174.243C21.053 176.858 18.6447 179.963 17.0017 183.38C15.3587 186.797 14.513 190.46 14.513 194.159L14.4153 645.749C14.4132 649.444 15.2558 653.105 16.8951 656.52C18.5342 659.936 20.9381 663.04 23.9691 665.654C27.0001 668.269 30.599 670.344 34.5604 671.76C38.5218 673.177 42.7681 673.907 47.0567 673.908L260.764 674.02C269.429 674.02 277.738 671.056 283.869 665.779C289.998 660.501 293.446 653.342 293.455 645.875L293.552 194.272C293.565 186.81 290.14 179.648 284.027 174.363C277.915 169.077 269.619 166.099 260.96 166.084Z" fill="white"/>
<path d="M267.276 211.684C267.276 211.81 261.871 211.95 255.213 211.992C248.554 212.034 243.149 211.992 243.149 211.852C243.149 211.712 248.554 211.6 255.213 211.557C261.871 211.515 267.276 211.571 267.276 211.684Z" fill="#263238"/>
<path d="M267.325 217.001C267.325 217.128 261.92 217.268 255.262 217.31C248.603 217.352 243.198 217.31 243.198 217.184C243.198 217.057 248.603 216.917 255.262 216.875C261.92 216.833 267.325 216.889 267.325 217.001Z" fill="#263238"/>
<path d="M267.374 222.319C267.374 222.445 261.969 222.585 255.311 222.628C248.652 222.67 243.247 222.628 243.247 222.501C243.247 222.375 248.652 222.235 255.311 222.193C261.969 222.151 267.374 222.207 267.374 222.319Z" fill="#263238"/>
<path d="M47.9033 228.394H48.3917H49.7918L54.9363 228.296L54.806 228.408C54.806 227.426 54.806 226.36 54.806 225.195C54.806 224.592 54.806 224.031 54.806 223.343C54.8811 222.978 55.0914 222.644 55.4056 222.391C55.7196 222.138 56.1205 221.98 56.548 221.94C57.3783 221.94 58.0946 221.94 59.0063 221.94C59.4688 222.013 59.8863 222.225 60.1844 222.539C60.4825 222.852 60.6419 223.247 60.6343 223.652C60.6343 225.153 60.6343 226.725 60.6343 228.338L60.4063 228.142H66.9183L66.6579 228.352C66.6579 226.107 66.6579 223.764 66.6579 221.337C66.6579 220.747 66.6579 220.158 66.6579 219.569C66.6404 219.291 66.5491 219.019 66.391 218.776C66.2331 218.533 66.0125 218.324 65.7462 218.166L62.8972 215.753L60.1621 213.424L58.8435 212.301C58.3713 211.922 58.0132 211.529 57.4922 211.431C57.2366 211.374 56.9691 211.366 56.7098 211.41C56.4506 211.454 56.2061 211.547 55.9945 211.684C55.6037 211.964 55.1805 212.371 54.7897 212.708L52.4617 214.728C50.9965 216.047 49.4662 217.24 48.3591 218.376C48.0306 219.034 47.9181 219.757 48.0335 220.467C48.0335 221.154 48.0335 221.87 48.0335 222.431C48.0335 223.652 48.0335 224.704 48.0335 225.616C48.0335 226.528 48.0335 227.103 48.0335 227.651C48.0335 228.198 48.0335 228.366 48.0335 228.38C48.0109 228.156 48.0109 227.931 48.0335 227.707C48.0335 227.159 48.0335 226.5 48.0335 225.7C48.0335 224.901 48.0335 223.722 48.0335 222.501C48.0335 221.87 48.0335 221.196 48.0335 220.495C48.0335 220.13 48.0335 219.765 48.0335 219.387C48.0324 218.978 48.1558 218.576 48.3917 218.222C49.5964 216.945 51.0291 215.823 52.4943 214.476L54.8223 212.427C55.2293 212.077 55.5712 211.726 56.0758 211.361C56.3407 211.191 56.6461 211.074 56.9698 211.018C57.2936 210.963 57.6277 210.969 57.9481 211.038C58.5874 211.219 59.1526 211.556 59.5761 212.006L60.911 213.129L63.6623 215.444L66.5113 217.857C66.7743 218.062 67.0141 218.287 67.2277 218.531C67.4378 218.817 67.5559 219.146 67.5695 219.485C67.5695 220.074 67.5695 220.663 67.5695 221.267C67.5695 223.652 67.5695 225.981 67.5695 228.282V228.506H67.3253H60.8133H60.5691V228.31C60.5691 226.682 60.5691 225.111 60.5691 223.61C60.5768 223.282 60.4508 222.961 60.2128 222.705C59.9747 222.449 59.64 222.272 59.2667 222.207C58.5179 222.207 57.6387 222.207 56.9061 222.207C56.5717 222.24 56.2577 222.362 56.007 222.555C55.7563 222.749 55.5813 223.004 55.5061 223.287C55.5061 223.862 55.5061 224.508 55.5061 225.083V228.422H55.3758H50.1336H48.3429C48.1955 228.428 48.048 228.418 47.9033 228.394Z" fill="#263238"/>
<path d="M248.538 256.497H55.6688C46.0213 256.497 38.2004 263.238 38.2004 271.552V277.151C38.2004 285.465 46.0213 292.205 55.6688 292.205H248.538C258.186 292.205 266.006 285.465 266.006 277.151V271.552C266.006 263.238 258.186 256.497 248.538 256.497Z" fill="#F5F5F5"/>
<path d="M248.587 292.219L249.889 292.121C251.164 292.023 252.424 291.811 253.65 291.49C255.628 290.945 257.481 290.105 259.12 289.006C261.365 287.533 263.154 285.605 264.33 283.394C265.033 282.06 265.495 280.64 265.697 279.185C265.86 277.585 265.915 275.978 265.86 274.372C265.928 272.624 265.836 270.875 265.583 269.139C265.225 267.286 264.457 265.509 263.32 263.906C262.07 262.129 260.4 260.598 258.42 259.412C256.44 258.225 254.195 257.409 251.827 257.017C249.196 256.747 246.545 256.662 243.898 256.764H235.481L55.734 256.862C51.4585 256.873 47.3428 258.263 44.197 260.759C41.0514 263.254 39.1038 266.674 38.7376 270.346C38.6074 272.114 38.7376 273.994 38.7376 275.818C38.6318 277.604 38.8516 279.393 39.3888 281.121C40.5001 284.535 43.003 287.49 46.4381 289.441C48.117 290.405 49.9879 291.096 51.957 291.476C53.9295 291.807 55.9407 291.935 57.948 291.855H93.3733H174.187L228.676 291.981H243.475H247.333H248.652H247.333H243.475L228.676 292.051L174.187 292.163L93.3733 292.248H57.8341C55.7659 292.327 53.6939 292.191 51.664 291.841C49.5974 291.448 47.6327 290.729 45.8683 289.722C42.266 287.672 39.6374 284.575 38.4609 280.995C37.9026 279.203 37.672 277.348 37.7771 275.495C37.7771 273.657 37.7771 271.861 37.8585 269.953C38.2338 266.099 40.274 262.508 43.5751 259.889C46.8763 257.27 51.198 255.814 55.6851 255.81L235.433 255.922H243.849C246.529 255.822 249.215 255.92 251.875 256.217C255.426 256.814 258.68 258.333 261.201 260.57C263.721 262.807 265.386 265.656 265.974 268.732C266.216 270.487 266.293 272.256 266.202 274.022C266.262 275.642 266.197 277.264 266.006 278.876C265.78 280.334 265.297 281.753 264.574 283.086C263.379 285.349 261.542 287.318 259.234 288.81C257.554 289.905 255.664 290.736 253.65 291.265C252.409 291.577 251.131 291.766 249.84 291.827L248.587 292.219Z" fill="#263238"/>
<path d="M252.054 273.517C251.973 273.517 251.973 272.941 251.647 271.973C251.197 270.612 250.228 269.421 248.896 268.592C247.838 267.905 246.578 267.487 245.258 267.383C243.937 267.279 242.61 267.494 241.425 268.004C240.24 268.514 239.242 269.298 238.545 270.27C237.847 271.241 237.479 272.361 237.479 273.503C237.479 274.645 237.847 275.764 238.545 276.735C239.242 277.707 240.24 278.491 241.425 279.001C242.61 279.511 243.937 279.726 245.258 279.622C246.578 279.519 247.838 279.1 248.896 278.413C250.228 277.579 251.197 276.383 251.647 275.018C251.973 274.05 251.973 273.475 252.054 273.475C252.085 273.614 252.085 273.756 252.054 273.895C252.072 274.296 252.028 274.697 251.924 275.088C251.569 276.57 250.61 277.894 249.222 278.82C248.188 279.521 246.965 279.985 245.666 280.169C244.369 280.353 243.039 280.251 241.798 279.872C240.271 279.4 238.951 278.532 238.016 277.388C237.083 276.244 236.582 274.88 236.582 273.482C236.582 272.083 237.083 270.719 238.016 269.575C238.951 268.431 240.271 267.563 241.798 267.091C243.037 266.71 244.367 266.606 245.665 266.787C246.962 266.969 248.186 267.43 249.222 268.129C250.599 269.064 251.555 270.384 251.924 271.861C252.028 272.257 252.072 272.662 252.054 273.068C252.092 273.216 252.092 273.369 252.054 273.517Z" fill="#263238"/>
<path d="M256.173 284.657C254.775 283.881 253.536 282.909 252.51 281.781C251.281 280.801 250.247 279.654 249.45 278.385C250.851 279.168 252.095 280.144 253.129 281.276C254.355 282.249 255.384 283.392 256.173 284.657Z" fill="#263238"/>
<path d="M68.9533 270.781H64.8996V269.883H74.2443V270.781H70.1743V279.844H68.9533V270.781Z" fill="#E0E0E0"/>
<path d="M82.5308 276.407H75.27C75.3286 277.141 75.72 277.827 76.3594 278.315C76.9991 278.803 77.8355 279.055 78.6888 279.017C79.1878 279.032 79.6845 278.951 80.1432 278.782C80.602 278.612 81.0114 278.357 81.3424 278.034L82.0099 278.694C81.3862 279.258 80.583 279.651 79.7011 279.823C78.8192 279.996 77.8981 279.94 77.053 279.662C76.2079 279.385 75.4766 278.899 74.9509 278.265C74.425 277.631 74.1284 276.877 74.0978 276.098C74.0664 275.604 74.1537 275.109 74.3539 274.645C74.5541 274.18 74.8633 273.757 75.262 273.4C75.6607 273.043 76.1403 272.761 76.671 272.571C77.2018 272.381 77.7722 272.288 78.3469 272.296C78.9195 272.287 79.488 272.381 80.0164 272.571C80.5447 272.762 81.0214 273.044 81.4163 273.402C81.8111 273.759 82.1155 274.184 82.3103 274.648C82.505 275.112 82.5856 275.606 82.5471 276.098C82.6123 276.182 82.5308 276.323 82.5308 276.407ZM75.27 275.649H81.4238C81.4238 274.946 81.0997 274.271 80.5225 273.774C79.9456 273.277 79.163 272.998 78.3469 272.998C77.5308 272.998 76.7482 273.277 76.1712 273.774C75.5941 274.271 75.27 274.946 75.27 275.649Z" fill="#E0E0E0"/>
<path d="M90.2964 279.844L87.5451 276.716L84.7612 279.844H83.4425L86.8776 276L83.6216 272.352H84.9403L87.5614 275.284L90.1662 272.352H91.4523L88.1963 276L91.6639 279.844H90.2964Z" fill="#E0E0E0"/>
<path d="M98.1596 279.381C97.6428 279.747 96.9883 279.937 96.32 279.915C95.9786 279.948 95.6328 279.914 95.3084 279.817C94.9837 279.72 94.6888 279.561 94.445 279.352C94.2013 279.143 94.0151 278.89 93.9 278.611C93.7849 278.332 93.744 278.034 93.7803 277.74V273.208H92.2988V272.352H93.8454V270.711H95.0176V272.352H97.6712V273.208H95.0176V277.726C94.9816 277.908 94.995 278.096 95.0565 278.273C95.1181 278.451 95.2263 278.614 95.3727 278.749C95.5192 278.885 95.6997 278.99 95.9008 279.056C96.1017 279.122 96.3176 279.147 96.5316 279.129C96.9987 279.137 97.4541 279.003 97.8178 278.75L98.1596 279.381Z" fill="#E0E0E0"/>
<path d="M97.6713 321.599H47.8056V364.575H97.6713V321.599Z" fill="#3DBE71"/>
<path d="M193.593 326.23C193.593 326.426 176.922 326.594 156.361 326.594C135.799 326.594 119.112 326.426 119.112 326.23C119.112 326.033 135.783 325.865 156.361 325.865C176.939 325.865 193.593 326.019 193.593 326.23Z" fill="#3DBE71"/>
<path d="M252.982 339.46C252.982 339.671 223.011 339.825 186.055 339.825C149.1 339.825 119.112 339.671 119.112 339.46C119.112 339.25 149.083 339.096 186.055 339.096C223.027 339.096 252.982 339.194 252.982 339.46Z" fill="#263238"/>
<path d="M251.403 348.805C251.403 349.001 221.79 349.17 185.258 349.17C148.725 349.17 119.112 349.001 119.112 348.805C119.112 348.608 148.725 348.44 185.258 348.44C221.79 348.44 251.403 348.608 251.403 348.805Z" fill="#263238"/>
<path d="M197.223 357.784C197.223 357.981 179.739 358.149 158.151 358.149C136.564 358.149 119.079 357.981 119.079 357.784C119.079 357.588 136.564 357.42 158.151 357.42C179.739 357.42 197.223 357.574 197.223 357.784Z" fill="#263238"/>
<path d="M97.6713 393.198H47.8056V436.174H97.6713V393.198Z" fill="#3DBE71"/>
<path d="M193.593 397.814C193.593 398.024 176.922 398.179 156.361 398.179C135.799 398.179 119.112 398.024 119.112 397.814C119.112 397.603 135.783 397.449 156.361 397.449C176.939 397.449 193.593 397.617 193.593 397.814Z" fill="#3DBE71"/>
<path d="M252.982 411.017C252.982 411.227 223.011 411.381 186.055 411.381C149.1 411.381 119.112 411.227 119.112 411.017C119.112 410.806 149.083 410.652 186.055 410.652C223.027 410.652 252.982 410.792 252.982 411.017Z" fill="#263238"/>
<path d="M251.403 420.403C251.403 420.6 221.79 420.768 185.258 420.768C148.725 420.768 119.112 420.6 119.112 420.403C119.112 420.207 148.725 420.038 185.258 420.038C221.79 420.038 251.403 420.193 251.403 420.403Z" fill="#263238"/>
<path d="M197.223 429.369C197.223 429.579 179.739 429.733 158.151 429.733C136.564 429.733 119.079 429.579 119.079 429.369C119.079 429.158 136.564 429.004 158.151 429.004C179.739 429.004 197.223 429.172 197.223 429.369Z" fill="#263238"/>
<path d="M97.6713 464.796H47.8056V507.772H97.6713V464.796Z" fill="#3DBE71"/>
<path d="M193.593 469.412C193.593 469.623 176.922 469.777 156.361 469.777C135.799 469.777 119.112 469.623 119.112 469.412C119.112 469.202 135.783 469.047 156.361 469.047C176.939 469.047 193.593 469.216 193.593 469.412Z" fill="#3DBE71"/>
<path d="M252.982 482.573C252.982 482.769 223.011 482.937 186.055 482.937C149.1 482.937 119.112 482.769 119.112 482.573C119.112 482.376 149.083 482.208 186.055 482.208C223.027 482.208 252.982 482.39 252.982 482.573Z" fill="#263238"/>
<path d="M251.403 492.001C251.403 492.198 221.79 492.366 185.258 492.366C148.725 492.366 119.112 492.198 119.112 492.001C119.112 491.805 148.725 491.622 185.258 491.622C221.79 491.622 251.403 491.791 251.403 492.001Z" fill="#263238"/>
<path d="M197.223 500.967C197.223 501.177 179.739 501.332 158.151 501.332C136.564 501.332 119.079 501.177 119.079 500.967C119.079 500.756 136.564 500.602 158.151 500.602C179.739 500.602 197.223 500.813 197.223 500.967Z" fill="#263238"/>
<path d="M97.6713 536.38H47.8056V579.356H97.6713V536.38Z" fill="#3DBE71"/>
<path d="M193.593 541.01C193.593 541.207 176.922 541.375 156.361 541.375C135.799 541.375 119.112 541.207 119.112 541.01C119.112 540.814 135.783 540.645 156.361 540.645C176.939 540.645 193.593 540.814 193.593 541.01Z" fill="#455A64"/>
<path d="M252.982 554.129C252.982 554.325 223.011 554.494 186.055 554.494C149.1 554.494 119.112 554.325 119.112 554.129C119.112 553.932 149.083 553.764 186.055 553.764C223.027 553.764 252.982 553.975 252.982 554.129Z" fill="#263238"/>
<path d="M251.403 563.585C251.403 563.796 221.79 563.95 185.258 563.95C148.725 563.95 119.112 563.796 119.112 563.585C119.112 563.375 148.725 563.221 185.258 563.221C221.79 563.221 251.403 563.389 251.403 563.585Z" fill="#263238"/>
<path d="M197.223 572.565C197.223 572.762 179.739 572.93 158.151 572.93C136.564 572.93 119.079 572.762 119.079 572.565C119.079 572.369 136.564 572.2 158.151 572.2C179.739 572.2 197.223 572.369 197.223 572.565Z" fill="#263238"/>
<path d="M97.6713 607.978H47.8056V650.954H97.6713V607.978Z" fill="#E0E0E0"/>
<path d="M193.593 612.608C193.593 612.805 176.922 612.973 156.361 612.973C135.799 612.973 119.112 612.805 119.112 612.608C119.112 612.412 135.783 612.244 156.361 612.244C176.939 612.244 193.593 612.398 193.593 612.608Z" fill="#E0E0E0"/>
<path d="M252.982 625.783C252.982 625.98 223.011 626.148 186.055 626.148C149.1 626.148 119.112 625.98 119.112 625.783C119.112 625.587 149.083 625.418 186.055 625.418C223.027 625.418 252.982 625.573 252.982 625.783Z" fill="#EBEBEB"/>
<path d="M251.403 635.184C251.403 635.38 221.79 635.549 185.258 635.549C148.725 635.549 119.112 635.38 119.112 635.184C119.112 634.987 148.725 634.819 185.258 634.819C221.79 634.819 251.403 634.987 251.403 635.184Z" fill="#EBEBEB"/>
<path d="M197.223 644.163C197.223 644.36 179.739 644.528 158.151 644.528C136.564 644.528 119.079 644.36 119.079 644.163C119.079 643.967 136.564 643.798 158.151 643.798C179.739 643.798 197.223 643.925 197.223 644.163Z" fill="#EBEBEB"/>
<g opacity="0.3">
<path opacity="0.3" d="M97.6713 536.38H47.8056V579.356H97.6713V536.38Z" fill="black"/>
</g>
<g opacity="0.3">
<path opacity="0.3" d="M97.6713 393.198H47.8056V436.174H97.6713V393.198Z" fill="black"/>
</g>
</g>
<defs>
<clipPath id="clip0">
<rect width="307.692" height="544.388" fill="white" transform="translate(0.268005 149.612)"/>
</clipPath>
</defs>
</svg>
