<svg width="512" height="512" viewBox="0 0 512 512" fill="none" xmlns="http://www.w3.org/2000/svg">
<path d="M287 0C278.709 0 272 6.709 272 15V226C272 234.291 278.709 241 287 241H497C505.291 241 512 234.291 512 226C512 101.928 411.072 0 287 0Z" fill="#16005C"/>
<path d="M314.788 478.367L242 283.275V76C242 67.709 235.291 61 227 61C102.928 61 0 161.928 0 286C0 410.072 102.928 512 227 512C254.158 512 280.745 507.181 306.014 497.688C313.763 494.773 317.689 486.13 314.788 478.367Z" fill="#16005C"/>
<path d="M497 271H287C282.078 271 277.479 273.417 274.666 277.46C271.868 281.503 271.224 286.659 272.952 291.273L346.692 488.914C348.098 492.635 350.911 495.652 354.544 497.293C358.179 498.946 362.275 499.086 366.028 497.674C453.333 464.817 512 379.164 512 286C512 277.709 505.291 271 497 271Z" fill="#3DBE71"/>
</svg>
